<svg width="294" height="390" fill="none" xmlns="http://www.w3.org/2000/svg"><path d="M.75 159.759c0 81.759 55.26 147.072 140.533 147.072l-80.032 28.663 7.146 12.687c12.386-4.699 24.772-9.398 40.492-9.398 42.398 0 74.316 51.217 124.813 51.217 34.776 0 51.449-23.964 59.548-50.277-10.48 10.807-28.107 15.506-46.209 15.506-43.828 0-75.269-29.133-112.903-30.542 22.39-7.518 44.303-15.506 66.217-24.434 62.883-26.783 91.942-77.53 91.942-148.482C292.297 72.361 240.848 0 149.382 0 53.152 0 .75 76.59.75 159.759zM133.661 9.398c63.359 0 99.088 72.361 105.281 146.132 2.858 55.916-14.291 144.253-79.556 144.253-67.647 0-101.946-89.747-104.805-145.193C48.388 80.82 71.255 9.398 133.661 9.398z" fill="#000"/></svg>